<svg width="88" height="88" viewBox="0 0 88 88" fill="none" xmlns="http://www.w3.org/2000/svg">
<path d="M57.1566 12.167H76.1149V83.6253H11.9482V12.167H30.9066" fill="#52D2E4"/>
<path d="M57.1566 12.167H76.1149V83.6253H11.9482V12.167H30.9066" stroke="white" stroke-width="2" stroke-miterlimit="10"/>
<path d="M32.3646 6.33301H55.6979C56.5029 6.33301 57.1563 6.98634 57.1563 7.79134V15.083C57.1563 15.888 56.5029 16.5413 55.6979 16.5413H32.3646C31.5596 16.5413 30.9062 15.888 30.9062 15.083V7.79134C30.9062 6.98634 31.5596 6.33301 32.3646 6.33301Z" fill="#52D2E4" stroke="white" stroke-width="2" stroke-miterlimit="10"/>
<path d="M20.6979 16.542H17.7812V19.4587H20.6979V16.542Z" fill="#52D2E4"/>
<path d="M20.6979 23.833H17.7812V26.7497H20.6979V23.833Z" fill="#52D2E4"/>
<path d="M49.8643 28.208H67.3643V45.708H49.8643V28.208Z" fill="#52D2E4" stroke="white" stroke-width="2" stroke-miterlimit="10"/>
<path d="M22.1562 36.958H36.7396Z" fill="#52D2E4"/>
<path d="M22.1562 36.958H36.7396" stroke="white" stroke-width="2" stroke-miterlimit="10"/>
<path d="M22.1562 64.666H36.7396Z" fill="#52D2E4"/>
<path d="M22.1562 64.666H36.7396" stroke="white" stroke-width="2" stroke-miterlimit="10"/>
<path d="M29.4482 57.375V71.9583Z" fill="#52D2E4"/>
<path d="M29.4482 57.375V71.9583" stroke="white" stroke-width="2" stroke-miterlimit="10"/>
<path d="M54.832 36.0914L58.615 39.8743L63.9014 34.5879" fill="#52D2E4"/>
<path d="M54.832 36.0914L58.615 39.8743L63.9014 34.5879" stroke="white" stroke-width="2" stroke-miterlimit="10"/>
<path d="M49.8643 55.916H67.3643V73.416H49.8643V55.916Z" fill="#52D2E4" stroke="white" stroke-width="2" stroke-miterlimit="10"/>
</svg>
