<svg width="88" height="88" viewBox="0 0 88 88" fill="none" xmlns="http://www.w3.org/2000/svg">
<g clip-path="url(#clip0_875_884)">
<path d="M11.7939 34.7773H25.0366C25.9803 34.7773 26.7455 34.0119 26.7455 33.0683C26.7455 32.1246 25.9803 31.3594 25.0366 31.3594H11.7939C10.8503 31.3594 10.085 32.1246 10.085 33.0683C10.085 34.0119 10.8501 34.7773 11.7939 34.7773Z" fill="#52D2E4"/>
<path d="M11.7939 46.6113H25.0366C25.9803 46.6113 26.7455 45.8461 26.7455 44.9025C26.7455 43.9588 25.9803 43.1934 25.0366 43.1934H11.7939C10.8503 43.1934 10.085 43.9588 10.085 44.9025C10.085 45.8461 10.8501 46.6113 11.7939 46.6113Z" fill="#52D2E4"/>
<path d="M28.1992 75.2567C27.8407 74.3972 26.8298 73.9752 25.9671 74.3322C25.107 74.6881 24.6876 75.7051 25.0444 76.5641C25.4016 77.4247 26.4133 77.8443 27.2746 77.4888C28.1343 77.1338 28.5567 76.1155 28.1992 75.2567Z" fill="#52D2E4"/>
<path d="M87.0405 48.8113L66.7132 26.9909L72.9368 20.7817C74.0179 19.7127 74.6133 18.2864 74.6133 16.7656C74.6133 15.2659 74.0326 13.8543 72.9791 12.7911C70.7994 10.59 67.2121 10.5616 64.982 12.7284C64.9765 12.7337 64.9713 12.739 64.9658 12.7443L56.4326 21.2569H53.2443V14.6939C53.2443 13.7502 52.4791 12.985 51.5354 12.985H42.4857V11.5889C42.4857 10.6452 41.7206 9.87988 40.7766 9.87988C39.833 9.87988 39.0678 10.6452 39.0678 11.5889V12.985H32.8246V11.5889C32.8246 10.6452 32.0595 9.87988 31.1158 9.87988C30.1721 9.87988 29.4067 10.6452 29.4067 11.5889V12.985H23.1636V11.5889C23.1636 10.6452 22.3981 9.87988 21.4545 9.87988C20.5108 9.87988 19.7455 10.6452 19.7455 11.5889V12.985H13.502V11.5889C13.502 10.6452 12.7368 9.87988 11.7931 9.87988C10.8494 9.87988 10.0841 10.6452 10.0841 11.5889V12.985H1.70801C0.764307 12.985 -0.000976562 13.7502 -0.000976562 14.6939V75.9098C-0.000976562 76.8535 0.764307 77.6187 1.70801 77.6187H19.1519C20.0957 77.6187 20.8609 76.8535 20.8609 75.9098C20.8609 74.9661 20.0957 74.2007 19.1519 74.2007H3.41699V16.4029H10.0841V17.9535C10.0841 18.8972 10.8494 19.6624 11.7931 19.6624C12.7368 19.6624 13.502 18.8972 13.502 17.9535V16.4029H19.7453V17.9535C19.7453 18.8972 20.5106 19.6624 21.4543 19.6624C22.3979 19.6624 23.1633 18.8972 23.1633 17.9535V16.4029H29.4065V17.9535C29.4065 18.8972 30.1719 19.6624 31.1156 19.6624C32.0592 19.6624 32.8244 18.8972 32.8244 17.9535V16.4029H39.0676V17.9535C39.0676 18.8972 39.833 19.6624 40.7766 19.6624C41.7203 19.6624 42.4855 18.8972 42.4855 17.9535V16.4029H49.8261V21.2665C46.7564 21.3913 43.8249 22.6875 41.6484 24.852L29.0718 37.4284C28.3118 38.1883 28.4529 39.4901 29.352 40.072C30.7682 40.9879 32.3554 41.58 34.014 41.8187C34.5668 41.8983 35.1274 41.9388 35.6927 41.9388C35.6955 41.9388 35.6979 41.9386 35.7006 41.9386L33.7388 43.8957C33.5964 44.0379 33.4835 44.2033 33.4 44.3818L27.9176 52.6164C27.4237 53.3584 27.222 54.2056 27.2957 55.027H11.7931C10.8494 55.027 10.0841 55.7922 10.0841 56.7359C10.0841 57.6796 10.8494 58.445 11.7931 58.445H31.0401C31.7799 58.445 32.5258 58.1983 33.1348 57.7844L41.4677 52.1225C41.5663 52.0577 41.6615 51.9816 41.7448 51.8985L45.6097 48.0428L49.8263 52.25V74.2007H34.1877C33.244 74.2007 32.4788 74.9661 32.4788 75.9098C32.4788 76.8535 33.244 77.6187 34.1877 77.6187H51.5354C52.4791 77.6187 53.2443 76.8535 53.2443 75.9098V55.5862C55.4049 57.3804 58.0986 58.3584 60.943 58.3584H67.7612C69.1791 58.3584 70.554 58.9466 71.5246 59.9627L84.5455 73.7999C85.581 74.9007 87.4988 74.1421 87.4988 72.6288V49.9761C87.499 49.5439 87.3352 49.1276 87.0405 48.8113ZM44.0656 27.269C45.7208 25.6137 47.9877 24.6746 50.3286 24.6746H53.0061L42.3582 35.2967C41.373 36.2428 40.4404 37.1696 39.1787 37.7545C37.3169 38.6173 35.1539 38.7551 33.1965 38.1376L44.0656 27.269ZM67.3703 15.1735C68.2619 14.3145 69.686 14.3236 70.5507 15.1967C70.9663 15.6161 71.1951 16.1732 71.1951 16.7656C71.1951 17.3664 70.9602 17.9296 70.5282 18.3568L52.6677 36.1756L51.8071 35.3148C51.001 34.5089 49.9841 33.917 48.8857 33.6132L67.3703 15.1735ZM31.2138 54.9575C31.0674 55.0568 30.9311 55.0454 30.8043 54.9196C30.6153 54.7324 30.7111 54.5882 30.7627 54.5108L35.2287 47.8028L37.8668 50.4368L31.2138 54.9575ZM40.5393 48.2734L37.3687 45.1026L40.6251 41.8535C40.9324 42.9663 41.5416 43.9819 42.3565 44.7968L43.1901 45.6287L40.5393 48.2734ZM84.0811 68.3189L74.0052 57.6116C72.3843 55.9141 70.1084 54.9406 67.7612 54.9406H60.943C58.6343 54.9406 56.4634 54.0435 54.8305 52.4149L44.7671 42.3737C43.3141 41.2843 43.6388 38.8689 44.7675 37.7224C46.0358 36.4882 48.1496 36.4908 49.3899 37.7316L57.5661 45.9076C58.2239 46.5651 59.3251 46.5654 59.9831 45.9076C60.6505 45.2404 60.6505 44.1582 59.9831 43.4906L55.0846 38.5921L64.2921 29.4064L84.0811 50.649V68.3189Z" fill="#52D2E4"/>
</g>
<defs>
<clipPath id="clip0_875_884">
<rect width="87.5" height="87.5" fill="white" transform="translate(-0.000976562)"/>
</clipPath>
</defs>
</svg>
