<svg width="67" height="88" viewBox="0 0 67 88" fill="none" xmlns="http://www.w3.org/2000/svg">
<path d="M49.1976 67.4861H59.9957L48.3192 79.9342V68.3645C48.3192 67.8798 48.7134 67.4861 49.1976 67.4861ZM36.167 19.1531L39.4958 18.7224L37.4177 15.7401L36.167 19.1531ZM66.4973 2.14461V63.1969H49.1976C46.3479 63.1969 44.03 65.5152 44.03 68.3645V87.5H2.14363C0.95895 87.5 -0.000976562 86.5396 -0.000976562 85.3554V2.14461C-0.000976562 0.960356 0.95895 0 2.14363 0H64.3523C65.5369 0 66.4973 0.960356 66.4973 2.14461ZM30.5657 28.2059C30.8093 28.2951 31.0581 28.3376 31.3039 28.3376C32.178 28.3376 32.9994 27.7988 33.3172 26.9303L34.5032 23.6936L42.2598 22.69L44.2307 25.5183C44.648 26.1166 45.3142 26.437 45.9918 26.437C46.4152 26.437 46.8428 26.3118 47.216 26.0518C48.1879 25.3746 48.4264 24.0381 47.7496 23.0665L38.5805 9.90852C38.5771 9.9038 38.5724 9.89994 38.5689 9.89522C38.5097 9.81115 38.439 9.73566 38.3673 9.6606C38.3412 9.63315 38.3189 9.60012 38.2914 9.57439C38.2348 9.5212 38.1687 9.47745 38.1061 9.43027C38.0559 9.39252 38.0096 9.3492 37.9569 9.31618C37.9165 9.29087 37.8702 9.27414 37.8278 9.25141C37.745 9.20723 37.6631 9.16177 37.5756 9.12917C37.5695 9.12702 37.5648 9.12316 37.5588 9.12102C37.5086 9.10257 37.4572 9.09657 37.407 9.08199C37.3285 9.05968 37.2509 9.0348 37.1702 9.02151C37.099 9.0095 37.0287 9.00864 36.9575 9.00435C36.8901 9.00006 36.8232 8.99234 36.7555 8.99406C36.683 8.9962 36.6126 9.00864 36.541 9.01808C36.4745 9.02665 36.408 9.03223 36.342 9.04724C36.2708 9.06354 36.203 9.08971 36.1335 9.1133C36.0713 9.13431 36.0083 9.15147 35.9474 9.17892C35.865 9.21581 35.7891 9.26342 35.7119 9.31017C35.6733 9.33376 35.6325 9.3492 35.5948 9.37537C35.5905 9.37837 35.5871 9.38266 35.5828 9.38566C35.4966 9.44657 35.4189 9.51863 35.3422 9.59197C35.316 9.61685 35.2855 9.63787 35.2607 9.6636C35.2088 9.71851 35.1667 9.78284 35.1208 9.84332C35.0814 9.89522 35.0363 9.94369 35.0024 9.99859C34.9801 10.0342 34.9656 10.0758 34.945 10.1131C34.8974 10.201 34.8498 10.2885 34.815 10.3816C34.8129 10.3872 34.8094 10.3915 34.8077 10.3971L29.2901 25.4544C28.8826 26.5665 29.4535 27.7984 30.5657 28.2059ZM36.2073 65.3415C36.2073 64.1572 35.2474 63.1969 34.0627 63.1969H12.3382C11.1536 63.1969 10.1936 64.1572 10.1936 65.3415C10.1936 66.5257 11.1536 67.4861 12.3382 67.4861H34.0631C35.2474 67.4861 36.2073 66.5257 36.2073 65.3415ZM45.3253 52.2594C45.3253 51.0751 44.3654 50.1148 43.1807 50.1148H12.3382C11.1536 50.1148 10.1936 51.0751 10.1936 52.2594C10.1936 53.4436 11.1536 54.404 12.3382 54.404H43.1807C44.3654 54.404 45.3253 53.4436 45.3253 52.2594ZM52.0135 39.1773C52.0135 37.993 51.0536 37.0327 49.8689 37.0327H12.3382C11.1536 37.0327 10.1936 37.993 10.1936 39.1773C10.1936 40.3615 11.1536 41.3219 12.3382 41.3219H49.8689C51.0536 41.3219 52.0135 40.3615 52.0135 39.1773ZM60.1831 13.7336C60.0313 12.5597 58.9599 11.7297 57.7808 11.882L54.9151 12.253L54.5441 9.38738C54.3923 8.21299 53.3213 7.38303 52.1417 7.53572C50.9673 7.68756 50.1378 8.7633 50.2901 9.93768L50.6611 12.8033L47.7955 13.1743C46.6211 13.3262 45.7915 14.4015 45.9438 15.5763C46.0836 16.6576 47.0062 17.446 48.0683 17.446C48.1596 17.446 48.2527 17.44 48.3462 17.4279L51.2118 17.0569L51.5828 19.9226C51.7227 21.0039 52.6453 21.7922 53.7073 21.7922C53.7987 21.7922 53.8917 21.7862 53.9848 21.7742C55.1592 21.6224 55.9887 20.5466 55.8365 19.3722L55.4654 16.5066L58.3311 16.1356C59.5059 15.9838 60.335 14.9085 60.1831 13.7336Z" fill="#52D2E4"/>
</svg>
