<svg width="88" height="88" viewBox="0 0 88 88" fill="none" xmlns="http://www.w3.org/2000/svg">
<path d="M79.2845 12.9754V6.48763H71.0692V0H19.4152L0 15.3323V74.5246H8.2155V81.0124H16.4308V87.5H87.5V12.9754H79.2845ZM18.4496 4.44492V14.5695H5.62859L18.4496 4.44492ZM3.29722 17.1734H21.7468V2.60383H67.7723V71.9205H3.29722V17.1734ZM11.5127 74.5244H71.0695V9.09145H75.9875V78.4084H11.5127V74.5244ZM84.2025 84.896H19.7277V81.0122H79.2845V15.5793H84.2025V84.896Z" fill="#52D2E3"/>
<path d="M58.254 20.3525H12.8154V22.9564H58.254V20.3525Z" fill="#52D2E3"/>
<path d="M58.254 27.3086H12.8154V29.9124H58.254V27.3086Z" fill="#52D2E3"/>
<path d="M58.254 41.2207H12.8154V43.8245H58.254V41.2207Z" fill="#52D2E3"/>
<path d="M58.254 55.1318H12.8154V57.7357H58.254V55.1318Z" fill="#52D2E3"/>
<path d="M58.254 62.0879H12.8154V64.6917H58.254V62.0879Z" fill="#52D2E3"/>
</svg>
