<svg width="88" height="100" viewBox="0 0 88 100" fill="none" xmlns="http://www.w3.org/2000/svg">
<path d="M2.39698 90.775C3.60032 91.5918 6.98825 93.9062 9.96886 95.9358L15.3562 99.599L19.2845 96.9041C27.3626 91.352 32.8401 87.584 46.3771 78.2268C54.0309 72.9368 62.3117 67.2102 64.8015 65.5009C67.3097 63.7791 71.4225 60.9469 73.9492 59.2002C76.4943 57.4535 80.5517 54.6587 82.9862 52.9869C85.4207 51.3274 87.4494 49.9052 87.4861 49.8305C87.5596 49.6688 89.7256 51.1539 56.3094 28.3698C51.1072 24.8303 40.7028 17.7265 33.168 12.5905C25.6516 7.45445 18.487 2.56594 17.2466 1.72439L15.025 0.202118L7.55562 5.34247C3.44285 8.17464 0.0494164 10.5326 0.0311104 10.5948C-0.00567388 10.657 0.475927 11.0782 1.12393 11.5362C2.23482 12.3284 33.4666 33.6522 43.1304 40.2113C45.6296 41.9068 49.8321 44.7656 52.461 46.5602L57.2558 49.815L54.6001 51.649C53.1431 52.6596 49.8787 54.9178 47.3336 56.6645C44.7885 58.4113 38.6101 62.6782 33.5937 66.1466C28.5772 69.615 22.4358 73.8446 19.946 75.5663C11.0749 81.6549 0.30435 89.1157 0.267635 89.2028C0.230816 89.2526 1.19364 89.9583 2.39698 90.775Z" fill="#52D2E3"/>
</svg>
