<svg width="52" height="43" viewBox="0 0 52 43" fill="none" xmlns="http://www.w3.org/2000/svg">
<path d="M3.45886 34.3001L5.94523 32.1408L12.9241 15.6068L19.8978 32.1408L22.3858 34.3001L25.843 39.912L24.3054 33.5677L24.5718 30.64L20.4341 20.2286H22.7287V21.907H23.8488V17.5083H22.7287V19.1867H20.0234L17.3452 12.4465C17.6303 11.8477 17.7967 11.1908 17.7967 10.4978C17.7967 8.05091 15.8245 6.04879 13.2788 5.73134V0H11.8769V5.73134C9.32942 6.05036 7.35729 8.05248 7.35729 10.4993C7.35729 11.48 7.67636 12.3899 8.22116 13.1536L5.82304 19.1883H3.00571V17.5099H1.88557V21.9086H3.00571V20.2302H5.40723L1.27289 30.6384L1.53935 33.5662L0 39.912L3.45886 34.3001ZM12.661 7.16771C14.6518 7.16771 16.2675 8.66223 16.2675 10.5088C16.2675 12.3537 14.6518 13.8498 12.661 13.8498C10.6668 13.8498 9.04938 12.3537 9.04938 10.5088C9.04938 8.66223 10.6668 7.16771 12.661 7.16771Z" fill="black"/>
<path d="M12.6609 12.2031C13.6402 12.2031 14.4379 11.4645 14.4379 10.5561C14.4379 9.64308 13.6402 8.90918 12.6609 8.90918C11.6749 8.90918 10.8789 9.64308 10.8789 10.5561C10.8789 11.4645 11.6749 12.2031 12.6609 12.2031Z" fill="black"/>
<path d="M1.85027 40.0483L1.45312 40.8089C1.5295 40.8419 6.47849 42.9996 13.2282 42.9996C16.6209 42.9996 20.4752 42.4496 24.3838 40.812L24.0053 40.042C12.7241 44.7676 1.95719 40.097 1.85027 40.0483Z" fill="black"/>
<path d="M35.462 27.8007C34.6151 27.8007 33.7886 27.8981 32.9875 28.0741L34.1705 26.9803C34.5948 26.9363 35.0242 26.9033 35.462 26.9033C40.9643 26.9033 45.803 30.521 46.9672 35.4995L47.0945 36.0402H24.3828L25.3502 35.1475H45.881C44.598 30.8588 40.3109 27.8007 35.462 27.8007Z" fill="black"/>
<path d="M20.8996 39.5742H21.8976L21.8959 38.3452L21.9858 38.2651H22.2336V39.5742H23.1331L23.1348 38.2651H23.4692V39.5742H24.3059V36.9324H24.6385V39.5742H25.426V38.2651H25.757V39.5742H26.7549V38.2619L27.0893 38.2651V39.5742H27.9922V38.2651H28.3248V39.5742H29.243V36.9324H29.5739V39.5742H30.4768V38.2651L30.8112 38.2619V39.5742H31.8074V38.2651H32.1418V39.5742H33.0447V38.2619L33.3773 38.2651V39.5742H34.2972V36.9324H34.6265V39.5742H35.4564V38.2651H35.789V39.5742H36.787V38.2651H37.1196V39.5742H38.0242V38.2651H38.3569V39.5742H39.1936V36.9324H39.5279V39.5742H40.312V38.2651H40.6447V39.5742H41.6443V38.2651H41.9753V39.5742H42.8765V38.2651H43.2125V39.5742H44.129V36.9324H44.4633V39.5742H45.3662V38.2651H45.6989V39.5742H46.6951V38.2651H47.0295V39.5742H47.9341V38.2651H48.2667V39.5742H49.1798V36.9324H49.5141V39.5742H51.0399V37.8078C51.0399 30.6071 45.3068 24.6353 37.8494 23.5603L38.6963 22.7793C46.2759 24.1811 52.0005 30.3839 52.0005 37.8078V40.4668H19.7031L20.8878 39.2693V39.5742H20.8996Z" fill="black"/>
<path d="M27.8676 18.8476L29.2169 17.5982L28.7858 17.199L28.1222 17.8119L27.9627 17.6626L28.6263 17.0498L28.1477 16.6097L27.4875 17.2226L27.3262 17.0733L27.9898 16.4604L27.5571 16.0597L26.8935 16.6742L26.7356 16.5249L27.3958 15.912L26.958 15.5018L25.607 16.7512L25.4458 16.605L26.7967 15.3572L26.4946 15.0743L25.831 15.692L25.6766 15.5427L26.3368 14.9298L25.8599 14.4882L25.1997 15.1026L25.0367 14.9549L25.702 14.3404L25.2693 13.9397L24.6057 14.5542L24.4461 14.4096L25.1097 13.792L24.7075 13.4227L23.3565 14.672L23.1987 14.5227L24.548 13.2734L24.1729 12.9276L23.5076 13.5405L23.348 13.3928L24.0116 12.7784L23.5347 12.3336L22.8728 12.9512L22.7116 12.8035L23.3769 12.189L22.9424 11.7899L22.2805 12.4028L22.121 12.2535L22.7829 11.6406L22.3433 11.232L20.994 12.4829L20.8328 12.3336L22.1855 11.0843L21.7544 10.6867L21.0925 11.3011L20.9279 11.1503L21.5915 10.5405L21.1179 10.0973L20.4543 10.7118L20.2931 10.5609L20.9567 9.94804L20.5273 9.55045L19.862 10.1633L19.7008 10.0125L20.3661 9.40115L19.9282 8.99256L18.5722 10.2451L18.416 10.0926L19.767 8.84326L18.2769 7.46661L18.2803 27.9137L17.3994 28.7293V6.48912C17.3994 6.32568 17.5046 6.17639 17.671 6.11195C17.8356 6.05067 18.024 6.08524 18.1462 6.19996L29.9399 17.1189L27.9678 18.9466L27.8676 18.8476Z" fill="black"/>
<path d="M20.918 25.4765V14.3454C20.918 14.1819 21.0249 14.0326 21.1878 13.9713C21.3524 13.9085 21.5408 13.9431 21.6664 14.0609L27.4555 19.4245L26.8327 19.9981L21.7954 15.326V24.6608L20.918 25.4765Z" fill="black"/>
<path d="M12.1041 35.4205L17.4638 40.3849C17.7761 40.6694 18.2734 40.6694 18.5789 40.3818L41.2176 19.4224C41.5282 19.1364 41.5282 18.6743 41.2176 18.3899L35.8579 13.4255C35.5541 13.1394 35.05 13.1394 34.7462 13.4255L12.1041 34.3911C11.7986 34.674 11.7986 35.136 12.1041 35.4205ZM12.6336 34.9066L35.3012 13.9158L40.6881 18.9038L39.2387 20.2474L35.179 16.4915L34.7089 16.9284L38.7635 20.6843L37.4702 21.885L35.4421 20.0086L34.9703 20.4423L37.0001 22.3203L35.7238 23.5021L33.6991 21.6257L33.2273 22.0594L35.2554 23.9358L33.8467 25.2402L31.8186 23.3622L31.3485 23.7975L33.3766 25.6739L32.102 26.8541L28.0458 23.0966L27.5756 23.5351L31.6319 27.291L30.3353 28.4916L28.3071 26.6137L27.8404 27.0521L29.8634 28.9254L28.5923 30.1072L26.5641 28.2308L26.0923 28.6661L28.1204 30.5425L26.7135 31.8453L24.6853 29.9673L24.2135 30.4058L26.2417 32.2806L25.1368 33.3068L21.0805 29.5477L20.6121 29.983L24.665 33.739L23.4837 34.8359L21.4573 32.9595L20.9838 33.3948L23.0119 35.2728L21.739 36.4514L19.7092 34.5734L19.2408 35.0103L21.2655 36.8899L19.8619 38.1911L17.8338 36.3147L17.3637 36.75L19.3867 38.6264L18.0273 39.8867L12.6336 34.9066Z" fill="black"/>
</svg>
