<svg width="71" height="45" viewBox="0 0 71 45" fill="none" xmlns="http://www.w3.org/2000/svg">
<path d="M18.9029 19.826L33.3241 36.0387L34.8176 37.7177L36.312 36.0395L51.0928 19.4416C51.0928 19.4415 51.0929 19.4415 51.0929 19.4414C57.7757 11.9384 61.4763 7.79247 63.5675 5.48801C64.617 4.33158 65.2413 3.66081 65.6271 3.26706C65.8166 3.07365 65.9235 2.97451 65.9701 2.93187C66.036 2.89918 66.1112 2.86463 66.1853 2.83363C66.2394 2.81104 66.282 2.79488 66.3101 2.78506C66.3102 2.78503 66.3103 2.78498 66.3104 2.78495C66.7694 2.69759 67.2743 2.86738 67.6908 3.37698C68.1208 3.90304 68.3343 4.67398 68.1264 5.45884C68.0982 5.55759 68.0496 5.69913 67.9914 5.84511C67.9686 5.90232 67.9467 5.95408 67.9272 5.99811C67.8746 6.06039 67.8052 6.14176 67.718 6.24309C67.4897 6.50862 67.1581 6.89011 66.7324 7.37708C65.8818 8.34991 64.6668 9.73077 63.1762 11.4189C60.1958 14.7945 56.1195 19.392 51.6661 24.3968C44.0066 32.9985 39.9575 37.5437 37.7587 39.9715C36.6534 41.1919 36.0415 41.8486 35.6814 42.2118C35.5622 42.332 35.4839 42.4057 35.4383 42.4474C34.9884 42.6457 34.6807 42.6457 34.3188 42.5003C34.276 42.4606 34.2122 42.3999 34.1242 42.3118C33.8162 42.0034 33.3152 41.4709 32.4731 40.5482C30.7974 38.7124 27.8622 35.4322 22.6168 29.5557L18.9029 19.826ZM18.9029 19.826C18.9028 19.8259 18.9027 19.8258 18.9026 19.8257C17.4757 18.2222 16.1862 16.7718 15.0197 15.4599C9.39595 9.13454 6.6336 6.02761 5.13451 4.50263C4.69526 4.05579 4.408 3.79007 4.21634 3.63256C4.10992 3.64097 3.98175 3.648 3.8359 3.648C3.62217 3.648 3.4938 3.64931 3.40359 3.65291C3.37783 3.66675 3.3464 3.68394 3.3063 3.70613L3.30609 3.70624M18.9029 19.826L3.30609 3.70624M3.30609 3.70624C2.76966 4.00293 2.4753 4.36256 2.28741 5.03559L2.28707 5.0368M3.30609 3.70624L2.28707 5.0368M2.28707 5.0368C2.13695 5.57319 2.20286 6.27818 2.44248 6.78209M2.28707 5.0368L2.44248 6.78209M2.44248 6.78209C2.46278 6.8063 2.5791 6.96489 2.93094 7.38237C3.40722 7.94751 4.21842 8.87988 5.61015 10.4563C8.38841 13.6032 13.4316 19.2618 22.6165 29.5554L2.44248 6.78209ZM68.0204 5.88604C68.0376 5.86449 68.0331 5.86893 68.0164 5.89098C68.0181 5.8889 68.0194 5.88726 68.0204 5.88604Z" fill="white" stroke="#52D2E4" stroke-width="4"/>
</svg>
